<?xml version="1.0" standalone="no"?>
<!DOCTYPE svg PUBLIC "-//W3C//DTD SVG 20010904//EN"
 "http://www.w3.org/TR/2001/REC-SVG-20010904/DTD/svg10.dtd">
<svg version="1.0" xmlns="http://www.w3.org/2000/svg"
 width="160.000000pt" height="143.000000pt" viewBox="0 0 160.000000 143.000000"
 preserveAspectRatio="xMidYMid meet">

<g transform="translate(0.000000,143.000000) scale(0.100000,-0.100000)"
fill="#000000" stroke="none">
<path d="M674 1321 l-321 -6 -40 -27 c-54 -36 -89 -82 -103 -138 -7 -31 -10
-175 -8 -455 3 -398 4 -411 25 -450 25 -47 64 -85 113 -111 32 -18 68 -19 443
-22 451 -3 478 -1 548 57 20 17 47 52 60 78 l24 48 0 415 c0 460 0 463 -64
533 -76 85 -111 89 -677 78z m-24 -276 l0 -25 -105 0 -105 0 0 -75 0 -75 -30
0 -30 0 0 100 0 100 135 0 135 0 0 -25z m408 -133 l-143 -141 70 -71 c42 -42
65 -73 60 -78 -8 -7 -551 -227 -615 -249 -8 -3 49 59 128 138 78 79 142 149
142 154 0 6 -27 37 -60 70 -33 33 -59 64 -57 68 3 9 609 258 615 253 1 -2 -62
-66 -140 -144z m180 -459 l3 -103 -136 0 -135 0 0 25 c0 24 1 24 103 27 l102
3 3 65 c3 83 7 92 34 88 22 -3 23 -8 26 -105z"/>
</g>
</svg>
